<svg width="30" height="30" viewBox="0 0 30 30" fill="none" xmlns="http://www.w3.org/2000/svg">
<path d="M9.40271 8.18933C9.04216 7.82849 8.4572 7.82849 8.09665 8.18933C6.75798 9.528 6.10002 11.3928 6.29123 13.306C6.33894 13.7826 6.74045 14.1379 7.20935 14.1379C7.24016 14.1379 7.27121 14.1364 7.30203 14.1333C7.80974 14.0825 8.1801 13.6296 8.12932 13.1222C7.99324 11.7626 8.45754 10.4406 9.40271 9.49534C9.76355 9.13484 9.76355 8.54983 9.40271 8.18933Z" fill="#94BDB7"/>
<path d="M13.0604 2.5C7.23735 2.5 2.5 7.23735 2.5 13.0604C2.5 18.8834 7.23735 23.6207 13.0604 23.6207C18.8834 23.6207 23.6207 18.8834 23.6207 13.0604C23.6207 7.23735 18.8833 2.5 13.0604 2.5ZM13.0604 21.7734C8.25586 21.7734 4.34731 17.8648 4.34731 13.0604C4.34731 8.25586 8.25586 4.34731 13.0604 4.34731C17.8646 4.34731 21.7734 8.25586 21.7734 13.0604C21.7734 17.8648 17.8648 21.7734 13.0604 21.7734Z" fill="#94BDB7"/>
<path d="M27.2294 25.9233L20.5175 19.2115C20.1567 18.8507 19.5723 18.8507 19.2115 19.2115C18.8506 19.5721 18.8506 20.157 19.2115 20.5176L25.9233 27.2294C26.009 27.3153 26.1107 27.3834 26.2228 27.4299C26.3349 27.4763 26.455 27.5002 26.5763 27.5C26.8128 27.5 27.049 27.4098 27.2294 27.2294C27.5902 26.8688 27.5902 26.2839 27.2294 25.9233Z" fill="#94BDB7"/>
</svg>
